<?xml version="1.0" encoding="iso-8859-1"?>
<!-- Generator: Adobe Illustrator 19.0.0, SVG Export Plug-In . SVG Version: 6.00 Build 0)  -->
<svg version="1.1" id="Capa_1" xmlns="http://www.w3.org/2000/svg" xmlns:xlink="http://www.w3.org/1999/xlink" x="0px" y="0px"
	 viewBox="0 0 512 512" style="enable-background:new 0 0 512 512;" xml:space="preserve">
<g>
	<g>
		<path d="M384,452.267H128c-14.114,0-25.6,11.486-25.6,25.6v8.533c0,14.114,11.486,25.6,25.6,25.6h256
			c14.114,0,25.6-11.486,25.6-25.6v-8.533C409.6,463.753,398.114,452.267,384,452.267z M392.533,486.4
			c0,4.702-3.823,8.533-8.533,8.533H128c-4.702,0-8.533-3.831-8.533-8.533v-8.533c0-4.702,3.831-8.533,8.533-8.533h256
			c4.71,0,8.533,3.831,8.533,8.533V486.4z"/>
	</g>
</g>
<g>
	<g>
		<path d="M341.333,418.133H170.667c-14.114,0-25.6,11.486-25.6,25.6s11.486,25.6,25.6,25.6h170.667c14.114,0,25.6-11.486,25.6-25.6
			S355.448,418.133,341.333,418.133z M341.333,452.267H170.667c-4.702,0-8.533-3.831-8.533-8.533c0-4.702,3.831-8.533,8.533-8.533
			h170.667c4.71,0,8.533,3.831,8.533,8.533C349.867,448.435,346.044,452.267,341.333,452.267z"/>
	</g>
</g>
<g>
	<g>
		<path d="M332.8,247.467H179.2c-4.71,0-8.533,3.823-8.533,8.533v34.133c0,4.71,3.823,8.533,8.533,8.533h153.6
			c4.71,0,8.533-3.823,8.533-8.533V256C341.333,251.29,337.51,247.467,332.8,247.467z M324.267,281.6H187.733v-17.067h136.533V281.6
			z"/>
	</g>
</g>
<g>
	<g>
		<path d="M332.8,179.2H179.2c-4.71,0-8.533,3.823-8.533,8.533v34.133c0,4.71,3.823,8.533,8.533,8.533h153.6
			c4.71,0,8.533-3.823,8.533-8.533v-34.133C341.333,183.023,337.51,179.2,332.8,179.2z M324.267,213.333H187.733v-17.067h136.533
			V213.333z"/>
	</g>
</g>
<g>
	<g>
		<path d="M307.2,213.333H204.8c-4.71,0-8.533,3.823-8.533,8.533V256c0,4.71,3.823,8.533,8.533,8.533h102.4
			c4.71,0,8.533-3.823,8.533-8.533v-34.133C315.733,217.156,311.91,213.333,307.2,213.333z M298.667,247.467h-85.333
			c0,0,0-17.067,0-17.067h85.333V247.467z"/>
	</g>
</g>
<g>
	<g>
		<path d="M323.831,347.17c-5.376-16.119-8.098-32.905-8.098-49.886v-7.151c0-4.71-3.823-8.533-8.533-8.533H204.8
			c-4.71,0-8.533,3.823-8.533,8.533v7.151c0,16.981-2.722,33.766-8.098,49.886c-5.888,17.69-8.969,27.802-8.969,46.746v32.751
			c0,4.71,3.823,8.533,8.533,8.533h136.533c4.71,0,8.533-3.823,8.533-8.533v-32.751C332.8,374.972,329.728,364.86,323.831,347.17z
			 M315.733,418.133H196.267v-24.218c0-16.367,2.483-24.508,8.098-41.353c5.811-17.425,8.823-35.55,8.969-53.897h85.342
			c0.137,18.347,3.157,36.471,8.96,53.897c5.615,16.845,8.098,24.986,8.098,41.353V418.133z"/>
	</g>
</g>
<g>
	<g>
		<path d="M358.4,102.4h-34.133c-4.71,0-8.533,3.823-8.533,8.533v25.6h-25.6v-17.067c0-4.71-3.823-8.533-8.533-8.533h-51.2
			c-4.71,0-8.533,3.823-8.533,8.533v17.067h-25.6v-25.6c0-4.71-3.823-8.533-8.533-8.533H153.6c-4.71,0-8.533,3.823-8.533,8.533
			V153.6c0,1.843,0.597,3.644,1.707,5.12l25.6,34.133c1.613,2.15,4.147,3.413,6.827,3.413h153.6c2.688,0,5.214-1.263,6.827-3.413
			l25.6-34.133c1.109-1.476,1.707-3.277,1.707-5.12v-42.667C366.933,106.223,363.11,102.4,358.4,102.4z M349.867,150.758
			L328.533,179.2H183.467l-21.333-28.442v-31.292H179.2v25.6c0,4.71,3.823,8.533,8.533,8.533H230.4c4.71,0,8.533-3.823,8.533-8.533
			V128h34.133v17.067c0,4.71,3.823,8.533,8.533,8.533h42.667c4.71,0,8.533-3.823,8.533-8.533v-25.6h17.067V150.758z"/>
	</g>
</g>
<g>
	<g>
		<path d="M338.389,103.646l-3.456-2.125c-12.774-7.876-31.394-19.362-53.333-23.066V76.8h17.067c4.71,0,8.533-3.823,8.533-8.533
			V34.133c0-4.71-3.823-8.533-8.533-8.533H281.6V8.533c0-4.71-3.823-8.533-8.533-8.533h-34.133c-4.71,0-8.533,3.823-8.533,8.533
			V25.6h-17.067c-4.71,0-8.533,3.823-8.533,8.533v34.133c0,4.71,3.823,8.533,8.533,8.533H230.4v1.656
			c-21.939,3.695-40.55,15.189-53.333,23.066l-3.456,2.125c-3.268,1.988-4.813,5.914-3.78,9.591
			c1.033,3.686,4.395,6.229,8.218,6.229h1.152v25.6c0,4.71,3.823,8.533,8.533,8.533H230.4c4.71,0,8.533-3.823,8.533-8.533V128
			h34.133v17.067c0,4.71,3.823,8.533,8.533,8.533h42.667c4.71,0,8.533-3.823,8.525-8.533v-25.6h1.152
			c3.814,0,7.177-2.543,8.218-6.229C343.194,109.559,341.658,105.634,338.389,103.646z M315.733,110.933v25.6h-25.6v-17.067
			c0-4.71-3.823-8.533-8.533-8.533h-51.2c-4.71,0-8.533,3.823-8.533,8.533v17.067h-25.6v-25.6c0-0.341-0.026-0.683-0.06-1.024
			c12.186-7.049,27.025-14.174,43.366-15.403c4.454-0.333,7.893-4.045,7.893-8.508V68.267c0-4.71-3.823-8.533-8.533-8.533h-17.067
			V42.667h17.067c4.71,0,8.533-3.823,8.533-8.533V17.067h17.067v17.067c0,4.71,3.823,8.533,8.533,8.533h17.067v17.067h-17.067
			c-4.71,0-8.533,3.823-8.533,8.533v17.732c0,4.463,3.439,8.175,7.893,8.508c16.341,1.229,31.172,8.354,43.366,15.403
			C315.75,110.242,315.733,110.583,315.733,110.933z"/>
	</g>
</g>
<g>
</g>
<g>
</g>
<g>
</g>
<g>
</g>
<g>
</g>
<g>
</g>
<g>
</g>
<g>
</g>
<g>
</g>
<g>
</g>
<g>
</g>
<g>
</g>
<g>
</g>
<g>
</g>
<g>
</g>
</svg>
