<svg id="Capa_1" enable-background="new 0 0 512 512" height="512" viewBox="0 0 512 512" width="512" xmlns="http://www.w3.org/2000/svg"><g><g><path d="m0 0v512h512v-512z" fill="#a65342"/></g><path d="m256 0h256v512h-256z" fill="#803b2d"/><path d="m396 46-30 40 30 30 40 40 30-40v-70z" fill="#1e2533"/><path d="m326 46-40 40 40 30 40 40 30-40v-70z" fill="#e1e6f0"/><path d="m256 46-30 40 30 30 30 40 40-40v-70z" fill="#1e2533"/><path d="m186 46-30 40 30 30 40 40 30-40v-70z" fill="#f3f5f9"/><path d="m116 46-30 40 30 30 40 40 30-40v-70z" fill="#353d4d"/><path d="m116 116-30 40-40-40v-70h70z" fill="#f3f5f9"/><path d="m396 116-30 40 30 30 40 30 30-30v-70z" fill="#e1e6f0"/><path d="m326 116-40 40 40 30 40 30 30-30v-70z" fill="#1e2533"/><path d="m256 116-30 40 30 30 30 30 40-30v-70z" fill="#e1e6f0"/><path d="m186 116-30 40 30 30 40 30 30-30v-70z" fill="#353d4d"/><path d="m116 116-30 40 30 30 40 30 30-30v-70z" fill="#f3f5f9"/><path d="m116 186-30 30-40-30v-70h70z" fill="#353d4d"/><path d="m396 186-30 30 30 40 40 30 30-30v-70z" fill="#1e2533"/><path d="m326 186-40 30 40 40 40 30 30-30v-70z" fill="#e1e6f0"/><path d="m256 186-30 30 30 40 30 30 40-30v-70z" fill="#1e2533"/><path d="m186 186-30 30 30 40 40 30 30-30v-70z" fill="#f3f5f9"/><path d="m116 186-30 30 30 40 40 30 30-30v-70z" fill="#353d4d"/><path d="m116 256-30 30-40-30v-70h70z" fill="#f3f5f9"/><path d="m396 256-30 30 30 40 40 30 30-30v-70z" fill="#e1e6f0"/><path d="m326 256-40 30 40 40 40 30 30-30v-70z" fill="#1e2533"/><path d="m256 256-30 30 30 40 30 30 40-30v-70z" fill="#e1e6f0"/><path d="m186 256-30 30 30 40 40 30 30-30v-70z" fill="#353d4d"/><path d="m116 256-30 30 30 40 40 30 30-30v-70z" fill="#f3f5f9"/><path d="m116 326-30 30-40-30v-70h70z" fill="#353d4d"/><path d="m396 326-30 30 30 40 40 30 30-30v-70z" fill="#1e2533"/><path d="m326 326-40 30 40 40 40 30 30-30v-70z" fill="#e1e6f0"/><path d="m256 326-30 30 30 40 30 30 40-30v-70z" fill="#1e2533"/><path d="m186 326-30 30 30 40 40 30 30-30v-70z" fill="#f3f5f9"/><path d="m116 326-30 30 30 40 40 30 30-30v-70z" fill="#353d4d"/><path d="m116 396-30 30-40-30v-70h70z" fill="#f3f5f9"/><path d="m396 396-30 30 30 40h70v-70z" fill="#e1e6f0"/><path d="m326 396-40 30 40 40h70v-70z" fill="#1e2533"/><path d="m256 396-30 30 30 40h70v-70z" fill="#e1e6f0"/><path d="m186 396-30 30 30 40h70v-70z" fill="#353d4d"/><path d="m116 396-30 30 30 40h70v-70z" fill="#f3f5f9"/><path d="m46 396h70v70h-70z" fill="#353d4d"/></g></svg>