<svg id="Layer_1" enable-background="new 0 0 512 512" height="50" viewBox="0 0 512 512" width="512" xmlns="http://www.w3.org/2000/svg"><g id="XMLID_2351_"><g id="XMLID_375_"><path id="XMLID_380_" d="m407.766 426.304c-3.652-24.368-20.676-44.409-43.338-52.417-26.616-52.474-40.744-111.204-40.888-170.041 16.188-1.572 28.885-15.252 28.885-31.846 0-13.82-8.807-25.62-21.103-30.087 10.158-14.912 15.614-32.486 15.614-50.977.001-50.142-40.793-90.936-90.936-90.936s-90.937 40.794-90.937 90.937c0 18.49 5.457 36.065 15.614 50.977-12.295 4.467-21.103 16.267-21.103 30.087 0 16.594 12.697 30.274 28.885 31.846-.144 58.837-14.271 117.567-40.888 170.041-22.662 8.008-39.686 28.05-43.338 52.417-21.399 1.911-38.233 19.933-38.233 41.822v33.873c0 5.523 4.478 10 10 10h360c5.522 0 10-4.477 10-10v-33.873c0-21.889-16.834-39.911-38.234-41.823zm-104.225-222.304c.155 57.171 12.847 114.243 36.842 166.127h-168.766c23.995-51.884 36.687-108.956 36.842-166.127zm-47.541-184c39.114 0 70.937 31.822 70.937 70.937 0 18.484-7.001 35.792-19.754 49.063h-102.365c-12.753-13.272-19.754-30.579-19.754-49.063-.001-39.115 31.822-70.937 70.936-70.937zm-76.425 152c0-6.617 5.383-12 12-12h128.85c6.617 0 12 5.383 12 12s-5.383 12-12 12h-128.85c-6.617 0-12-5.383-12-12zm246.425 320h-340v-23.873c0-12.131 9.869-22 22-22h103.128c5.522 0 10-4.477 10-10s-4.478-10-10-10h-86.52c4.58-20.57 22.963-36 44.892-36h173c21.93 0 40.313 15.43 44.892 36h-86.265c-5.522 0-10 4.477-10 10s4.478 10 10 10h102.873c12.131 0 22 9.869 22 22z"/><path id="XMLID_384_" d="m256.13 426.13c-2.64 0-5.21 1.06-7.07 2.93-1.87 1.86-2.93 4.43-2.93 7.07 0 2.63 1.06 5.21 2.93 7.07 1.86 1.86 4.431 2.93 7.07 2.93 2.63 0 5.21-1.07 7.07-2.93 1.859-1.86 2.93-4.44 2.93-7.07s-1.07-5.21-2.93-7.07c-1.86-1.87-4.44-2.93-7.07-2.93z"/></g></g></svg>